<?xml version="1.0" standalone="no"?><!DOCTYPE svg PUBLIC "-//W3C//DTD SVG 1.1//EN" "http://www.w3.org/Graphics/SVG/1.1/DTD/svg11.dtd"><svg t="1540737116788" class="icon" style="" viewBox="0 0 1024 1024" version="1.1" xmlns="http://www.w3.org/2000/svg" p-id="632" xmlns:xlink="http://www.w3.org/1999/xlink" width="200" height="200"><defs><style type="text/css"></style></defs><path d="M175.706721 1024v-55.266802h672.586558v55.266802H175.706721z m72.224326-125.896733l256.718468-107.182143L777.69776 903.197198l4.450541 41.302028h-539.216293zM752.121743 687.602444l2.522461 1.668432 17.366289 161.160081-206.500758-84.919006z m-39.042346-306.710941l8.759267 3.94167 26.319511 244.246941-200.611193-132.251373zM702.149084 202.097141l13.620659 126.397262-147.830354-66.512032z m-5.50374-51.075911l-188.442069 84.083748-180.097825-81.03156 0.870713-8.085638H320.651731v-41.189409h381.653768V145.98778h-6.202395zM615.555389 145.98778H409.510322v12.904277h206.045067V145.98778zM320.651731 46.924644h31.283096v-0.373312L398.486159 0H431.185336v46.924644h159.543788V2.997963h32.616799L667.090118 46.924644H702.305499v39.103869H320.651731V46.924644z m127.730966 214.872114l-138.546575 61.820611 12.759332-118.415903zM276.884595 629.409629l25.665694-238.184277L464.512261 497.997686z m231.235258-340.735478l155.418591 69.927104-157.905597 110.596171-162.299829-106.994444z m-3.594427 451.761271l-192.046925-78.967919L506.426395 525.629002l198.759234 131.029246zM253.633955 845.183739l16.249483-150.797034 173.78281 71.45789z" p-id="633" fill="#59a8dd"></path></svg>