<?xml version="1.0" encoding="utf-8"?>
<!-- Generator: Adobe Illustrator 16.0.0, SVG Export Plug-In . SVG Version: 6.00 Build 0)  -->
<!DOCTYPE svg PUBLIC "-//W3C//DTD SVG 1.1//EN" "http://www.w3.org/Graphics/SVG/1.1/DTD/svg11.dtd">
<svg version="1.1" id="_x37C_" xmlns="http://www.w3.org/2000/svg" xmlns:xlink="http://www.w3.org/1999/xlink" x="0px" y="0px"
	 width="70.867px" height="70.866px" viewBox="0 0 70.867 70.866" enable-background="new 0 0 70.867 70.866" xml:space="preserve">
<g>
	<path fill-rule="evenodd" clip-rule="evenodd" fill="#59A8DE" d="M35.434,70.866c19.516,0,35.433-15.917,35.433-35.433
		S54.949,0,35.434,0C15.917,0,0,15.917,0,35.433S15.917,70.866,35.434,70.866z"/>
	<path fill-rule="evenodd" clip-rule="evenodd" fill="#FFFFFF" d="M53.51,28.331l-17.241,16.41l-0.326-0.342l-0.326-0.343
		l17.241-16.41l0.326,0.343l0.149,0.157L53.51,28.331L53.51,28.331z M56.564,19.357v-3.39h1.265c0.318,0,0.549,0.031,0.694,0.091
		c0.144,0.062,0.26,0.169,0.346,0.324c0.087,0.157,0.13,0.334,0.13,0.535c0.001,0.254-0.066,0.464-0.197,0.63
		c-0.13,0.165-0.327,0.269-0.589,0.313c0.131,0.086,0.237,0.181,0.323,0.285c0.084,0.102,0.199,0.285,0.341,0.55l0.235,0.427
		c0.381-0.416,0.617-0.992,0.617-1.628c0-1.257-0.928-2.278-2.076-2.278c-1.152,0-2.079,1.021-2.08,2.278
		c0,1.261,0.928,2.289,2.081,2.289c0.45,0,0.867-0.159,1.206-0.427h-0.337l-0.435-0.738c-0.153-0.263-0.261-0.429-0.316-0.498
		c-0.058-0.068-0.117-0.117-0.181-0.141c-0.063-0.026-0.165-0.038-0.303-0.038l-0.121,0.001v1.414H56.564L56.564,19.357z
		 M57.166,17.401V16.54h0.468c0.245,0,0.391,0.004,0.44,0.013c0.097,0.018,0.173,0.063,0.226,0.133
		c0.054,0.071,0.08,0.162,0.08,0.276c0,0.102-0.02,0.185-0.061,0.254c-0.041,0.069-0.096,0.115-0.168,0.144
		c-0.072,0.026-0.252,0.042-0.54,0.042H57.166L57.166,17.401z M57.653,14.523c1.499,0,2.705,1.332,2.705,2.972
		c0,1.646-1.206,2.98-2.706,2.98c-1.499,0-2.714-1.334-2.714-2.98C54.938,15.855,56.153,14.523,57.653,14.523L57.653,14.523z
		 M55.621,27.944c0.883,2.303,1.367,4.804,1.367,7.417c0,11.414-9.164,20.65-20.467,20.65c-11.3,0-20.465-9.237-20.465-20.65
		c0-11.402,9.166-20.653,20.465-20.653c7.774,0,14.541,4.383,18.003,10.823l1.483,0.001c-3.738-8.326-12.039-14.121-21.691-14.121
		c-13.151,0-23.807,10.759-23.807,24.018c0,13.268,10.656,24.024,23.807,24.024c13.155,0,23.813-10.757,23.813-24.024
		c0-2.648-0.437-5.194-1.22-7.582L55.621,27.944L55.621,27.944z M28.11,36.548l-8.017,7.85h13.604l8.443-7.85H28.11L28.11,36.548z
		 M38.569,27.253l-1.752,1.993l5.853,6.876l8.955-8.869H38.569L38.569,27.253z M20.093,27.253l7.952,8.608h13.541l-7.27-8.608
		H20.093z"/>
</g>
</svg>
